<svg xmlns="http://www.w3.org/2000/svg" width="1024" height="1024" viewBox="0 0 1024 1024">
<g>
<path d="M 525.34 592.19 L 519.17 598.00 L 512.84 597.99 C505.74,597.99 503.32,596.80 498.01,590.69 C486.22,577.16 446.50,571.64 400.00,577.09 C397.73,577.36 395.66,577.61 393.75,577.83 C375.82,579.95 372.98,580.28 371.41,579.03 C370.95,578.66 370.60,578.15 370.00,577.52 L 367.50 574.84 L 367.21 507.99 C367.20,506.06 367.19,504.17 367.18,502.34 C366.93,444.82 366.89,436.91 370.67,434.06 C371.39,433.52 372.25,433.16 373.28,432.67 C375.22,431.75 379.05,431.00 381.79,431.00 C387.87,431.00 388.00,430.74 388.00,419.03 C388.00,418.54 388.00,418.07 388.00,417.61 C387.99,412.89 387.98,410.06 389.36,408.37 C391.43,405.85 396.58,405.86 409.43,405.89 C410.26,405.89 411.12,405.90 412.01,405.90 C426.54,405.92 434.95,406.40 440.93,407.54 C451.96,409.64 470.20,415.26 476.46,418.49 C485.53,423.16 498.08,432.33 503.86,438.51 C507.00,441.87 510.15,444.98 510.86,445.41 C511.72,445.94 514.69,443.74 519.82,438.77 C528.06,430.80 540.11,422.20 547.77,418.83 C555.86,415.27 562.39,413.00 564.54,413.00 C565.67,413.00 567.03,412.61 567.55,412.13 C569.30,410.54 585.52,406.99 595.56,406.02 C601.03,405.49 611.36,405.04 618.53,405.03 C635.93,404.99 636.00,405.04 636.01,417.31 L 636.01 417.63 C636.03,425.38 636.03,428.45 637.54,429.72 C638.55,430.57 640.24,430.62 643.05,430.72 C649.52,430.97 654.35,432.92 655.97,435.94 C657.35,438.51 657.39,571.84 656.02,575.45 C654.44,579.61 651.49,580.34 641.40,579.05 C636.50,578.43 628.22,577.38 623.00,576.72 C609.73,575.04 570.58,575.14 560.50,576.88 C551.37,578.45 537.70,582.56 534.00,584.84 C532.62,585.69 528.73,589.00 525.34,592.19 ZM 508.37 586.75 C511.87,590.74 514.58,589.61 519.82,582.00 C528.97,568.72 542.36,558.89 559.70,552.75 L 568.50 549.64 L 596.39 549.38 C612.89,549.23 624.68,548.72 625.26,548.14 C626.31,547.09 626.43,416.50 625.38,414.80 C624.60,413.54 600.02,414.74 589.00,416.58 C571.90,419.43 545.56,429.37 538.31,435.71 C537.11,436.76 534.89,438.50 533.39,439.56 C528.93,442.72 524.07,448.16 520.94,453.50 L 518.02 458.50 L 518.01 485.20 C518.00,513.82 517.59,516.56 513.16,517.67 C511.29,518.14 510.20,517.73 508.83,516.04 C507.16,513.98 507.00,511.48 507.00,487.36 L 507.00 460.94 L 503.92 454.85 C497.09,441.31 481.06,429.93 458.24,422.42 C442.13,417.12 430.66,415.17 413.50,414.81 L 398.50 414.50 L 398.24 481.44 C398.10,518.26 398.34,548.74 398.77,549.17 C399.20,549.60 406.12,549.56 414.14,549.09 C430.35,548.13 451.38,549.21 459.37,551.41 C478.98,556.81 491.73,565.01 502.26,579.00 C504.53,582.03 507.29,585.51 508.37,586.75 ZM 549.47 568.96 C549.90,569.64 551.16,569.92 552.36,569.59 C553.54,569.27 558.59,568.30 563.60,567.43 C574.12,565.61 606.88,565.85 630.33,567.93 C637.94,568.60 644.80,568.91 645.58,568.61 C646.79,568.15 647.00,558.58 647.00,505.36 C647.00,448.42 646.85,442.49 645.35,440.83 C644.43,439.82 642.91,439.00 641.97,439.00 C641.02,439.00 639.69,438.33 639.01,437.51 C638.33,436.69 637.37,436.27 636.89,436.57 C636.39,436.88 636.00,463.04 636.00,496.49 L 636.00 555.85 L 633.26 558.01 C631.18,559.65 629.68,560.03 627.01,559.60 C625.08,559.29 615.62,558.74 606.00,558.39 C586.98,557.68 575.52,558.70 563.50,562.15 C550.84,565.79 548.28,567.03 549.47,568.96 ZM 472.77 569.44 C473.60,570.27 475.08,568.94 474.45,567.92 C472.74,565.16 460.52,561.35 445.77,558.97 C438.36,557.78 420.87,558.03 399.85,559.63 C398.83,559.71 397.90,559.81 397.05,559.91 C394.69,560.18 392.94,560.38 391.65,559.71 C387.92,557.77 387.94,548.64 387.99,513.25 C387.99,508.79 388.00,503.91 388.00,498.58 C388.00,467.00 387.73,440.47 387.41,439.62 C386.69,437.75 381.44,438.46 378.75,440.79 C377.12,442.21 377.00,446.55 377.00,505.19 C377.00,559.21 377.20,568.14 378.45,568.62 C379.25,568.93 385.89,568.62 393.20,567.95 C415.60,565.88 449.90,565.60 461.89,567.39 C467.60,568.24 472.49,569.16 472.77,569.44 ZM 505.79 563.81 C503.19,566.41 500.95,564.87 494.46,556.02 C477.80,533.32 457.37,521.76 427.50,518.11 C422.73,517.53 422.49,517.35 422.19,514.24 C421.76,509.87 423.29,509.44 433.85,510.93 C454.39,513.82 471.38,521.55 485.87,534.57 C496.17,543.84 508.16,561.44 505.79,563.81 ZM 549.16 353.25 C547.51,355.21 545.35,355.44 542.75,353.92 C540.26,352.47 540.53,347.16 543.32,342.98 C544.60,341.07 548.24,334.63 551.41,328.69 C557.53,317.20 560.01,314.87 563.87,316.93 C565.89,318.01 566.47,319.64 566.05,323.00 C565.83,324.72 551.37,350.62 549.16,353.25 ZM 482.86 351.95 C480.74,355.73 477.77,355.68 474.53,351.80 C470.95,347.50 459.04,326.25 458.35,322.91 C457.46,318.63 462.91,315.21 466.55,317.77 C467.12,318.17 471.35,325.45 475.94,333.95 C483.88,348.63 484.22,349.52 482.86,351.95 ZM 501.06 389.89 C499.81,392.23 496.77,392.68 495.29,390.75 C494.76,390.06 492.65,386.45 490.60,382.72 C486.67,375.57 486.22,371.50 489.17,369.66 C491.61,368.13 493.09,369.78 497.95,379.40 C501.50,386.44 502.00,388.13 501.06,389.89 ZM 529.82 389.25 C527.70,392.23 526.08,392.68 524.20,390.80 C522.31,388.91 522.75,386.77 526.57,379.39 C531.14,370.56 533.42,368.14 535.76,369.62 C536.72,370.22 537.64,371.45 537.82,372.34 C538.15,374.04 533.22,384.48 529.82,389.25 ZM 572.75 394.03 C567.54,396.39 566.61,396.44 564.90,394.39 C563.75,392.99 563.95,392.44 566.33,390.39 C571.25,386.16 577.00,385.96 577.00,390.02 C577.00,391.50 575.77,392.66 572.75,394.03 ZM 459.81 393.31 C459.41,396.16 456.45,396.52 452.00,394.27 C449.40,392.96 448.50,391.85 448.50,390.00 C448.50,387.81 448.91,387.52 451.77,387.65 C456.34,387.86 460.20,390.58 459.81,393.31 Z" fill="rgb(50,57,60)"/>
<path d="M 469.66 415.65 C461.38,412.63 449.15,409.11 440.93,407.54 C434.95,406.40 426.54,405.92 412.01,405.90 C411.12,405.90 410.26,405.89 409.43,405.89 C398.30,405.87 392.94,405.85 390.37,407.49 C390.56,407.29 390.76,407.09 390.98,406.87 L 393.95 403.89 L 407.23 404.31 C422.49,404.79 435.88,406.24 445.67,408.48 C453.19,410.20 462.77,413.11 469.66,415.65 ZM 385.90 430.59 C387.93,429.74 388.00,427.11 388.00,419.03 C388.00,427.11 387.94,429.74 385.90,430.59 ZM 381.79 431.00 C383.68,431.00 384.99,430.98 385.90,430.59 C384.99,430.98 383.68,431.00 381.79,431.00 Z" fill="rgb(105,110,109)"/>
<path d="M 524.79 562.25 C521.08,566.00 519.92,566.59 518.67,565.33 C516.98,563.65 518.51,561.15 525.00,554.93 L 532.00 548.23 L 532.02 521.87 C532.02,507.36 532.43,494.87 532.91,494.10 C534.58,491.47 537.00,493.69 537.00,497.85 C537.00,503.36 538.99,504.71 542.64,501.68 C552.95,493.12 568.34,485.25 580.09,482.53 C589.51,480.34 591.78,479.83 592.33,478.57 C592.50,478.17 592.50,477.70 592.50,477.07 L 592.50 476.98 C592.50,474.69 592.14,474.50 587.90,474.55 C585.38,474.58 580.65,475.22 577.40,475.96 C571.08,477.42 555.77,484.31 549.64,488.47 C542.35,493.41 540.14,490.11 547.25,484.90 C556.45,478.15 578.50,469.79 590.15,468.63 L 596.79 467.97 L 597.84 470.98 C598.85,473.88 599.13,474.00 604.83,474.00 C612.18,474.00 613.13,472.99 612.87,465.36 C612.77,462.14 612.75,451.71 612.84,442.18 L 613.00 424.86 L 617.50 425.50 L 617.76 465.88 C617.93,492.50 617.67,506.69 616.99,507.51 C616.43,508.19 613.66,508.97 610.84,509.24 C605.48,509.76 602.44,512.19 601.79,516.46 C601.43,518.86 598.50,519.74 590.00,520.00 C586.42,520.10 581.25,520.71 578.50,521.35 C574.33,522.31 573.27,523.03 572.10,525.69 C570.95,528.30 569.95,529.00 566.60,529.55 C561.20,530.43 559.00,532.50 559.00,536.70 C559.00,540.35 555.37,545.00 552.52,545.00 C548.12,545.00 531.81,555.14 524.79,562.25 ZM 540.77 480.86 C537.07,483.14 533.86,485.00 533.65,485.00 C532.84,485.00 531.97,474.97 532.57,472.58 C533.83,467.57 553.31,454.80 566.00,450.68 C575.18,447.69 587.88,444.86 590.65,445.17 C593.37,445.49 593.51,445.76 593.80,451.22 C594.17,458.37 592.96,460.73 588.48,461.57 C586.55,461.93 584.75,462.59 584.47,463.04 C584.20,463.49 581.39,464.14 578.23,464.49 C567.83,465.62 559.87,469.10 540.77,480.86 ZM 541.09 455.13 C535.55,459.09 533.58,459.75 532.51,458.02 C529.82,453.66 552.35,437.66 568.50,432.46 C578.16,429.35 588.01,427.01 592.63,426.73 L 596.50 426.50 L 596.81 430.89 C596.99,433.30 596.76,435.64 596.31,436.08 C595.87,436.52 591.53,437.38 586.67,437.98 C581.82,438.58 575.75,439.74 573.17,440.55 C570.60,441.35 566.92,442.51 565.00,443.12 C558.67,445.13 546.60,451.19 541.09,455.13 ZM 451.80 369.80 C449.18,372.42 445.52,370.95 437.00,363.86 C432.33,359.97 426.14,355.25 423.26,353.37 C420.39,351.49 417.32,348.58 416.45,346.90 C415.01,344.12 415.01,343.63 416.46,341.42 C418.71,337.99 422.03,338.37 427.67,342.71 C430.33,344.75 435.42,348.63 439.00,351.35 C451.17,360.59 453.00,362.46 453.00,365.65 C453.00,367.27 452.46,369.14 451.80,369.80 ZM 582.13 368.21 C576.34,372.54 572.00,371.52 572.00,365.84 C572.00,363.15 576.37,358.16 582.23,354.17 C583.48,353.32 587.65,350.08 591.50,346.97 C602.22,338.30 605.58,337.13 608.33,341.06 C610.32,343.91 609.36,346.64 605.26,349.81 C603.35,351.29 598.18,355.42 593.77,359.00 C589.36,362.58 584.12,366.72 582.13,368.21 ZM 516.00 333.00 C514.90,334.10 513.33,335.00 512.50,335.00 C511.67,335.00 510.10,334.10 509.00,333.00 C507.15,331.15 507.00,329.67 507.00,312.93 C507.00,302.39 507.43,294.06 508.04,292.93 C508.75,291.60 510.13,291.00 512.50,291.00 C514.87,291.00 516.25,291.60 516.96,292.93 C517.57,294.06 518.00,302.39 518.00,312.93 C518.00,329.67 517.85,331.15 516.00,333.00 ZM 605.67 501.33 C607.10,502.77 611.77,501.99 612.19,500.25 C613.25,495.81 610.52,493.12 606.93,495.04 C605.07,496.03 604.29,499.95 605.67,501.33 ZM 549.47 568.96 C548.28,567.03 550.84,565.79 563.50,562.15 C565.33,561.62 567.14,561.15 568.97,560.74 C565.38,561.66 562.02,562.85 558.63,564.33 L 553.75 566.47 L 557.13 567.19 C558.98,567.59 563.32,567.43 566.76,566.85 C568.85,566.50 574.07,566.32 580.74,566.28 C573.29,566.43 567.17,566.81 563.60,567.43 C558.59,568.30 553.54,569.27 552.36,569.59 C551.16,569.92 549.90,569.64 549.47,568.96 ZM 472.77 569.44 C472.49,569.16 467.60,568.24 461.89,567.39 C460.23,567.14 458.16,566.93 455.74,566.77 C458.94,566.89 461.63,567.04 463.50,567.22 C470.26,567.85 466.09,563.70 457.55,561.29 C466.62,563.43 473.23,565.95 474.45,567.92 C475.08,568.94 473.60,570.27 472.77,569.44 ZM 547.67 538.33 C549.18,539.85 552.89,538.93 553.54,536.89 C554.52,533.79 551.90,531.45 549.12,532.94 C547.08,534.03 546.29,536.96 547.67,538.33 ZM 646.52 563.17 L 646.76 505.59 C646.90,469.97 646.91,454.28 646.54,447.09 C646.94,454.30 647.00,469.98 647.00,505.36 C647.00,539.76 646.91,555.92 646.52,563.17 ZM 425.18 566.31 C418.19,566.45 411.02,566.72 404.32,567.12 C405.07,567.04 405.81,566.95 406.56,566.86 C409.45,566.53 416.69,566.35 425.18,566.31 ZM 377.44 562.53 C377.08,555.02 377.00,538.87 377.00,505.19 C377.00,530.40 377.18,552.41 377.44,562.53 ZM 446.77 559.14 C442.25,558.56 437.17,558.26 431.19,558.23 C437.56,558.22 442.59,558.46 445.77,558.97 C446.10,559.03 446.44,559.08 446.77,559.14 ZM 639.78 568.60 C640.44,568.61 641.02,568.61 641.50,568.60 L 645.71 568.52 C645.67,568.56 645.63,568.59 645.58,568.61 C645.16,568.77 642.94,568.75 639.78,568.60 ZM 378.72 568.68 C378.85,568.69 378.99,568.70 379.15,568.71 C378.98,568.71 378.84,568.69 378.72,568.68 Z" fill="rgb(131,161,156)"/>
<path d="M 527.50 562.08 C524.75,564.65 521.55,567.04 520.39,567.40 C517.64,568.24 515.73,565.93 516.53,562.73 C517.32,559.60 522.72,553.00 524.50,553.00 C525.25,553.00 526.79,551.81 527.93,550.37 C529.90,547.85 530.00,546.52 530.00,521.93 C530.00,507.59 530.43,494.99 530.98,493.57 C532.90,488.50 539.00,491.74 539.00,497.83 C539.00,501.74 540.18,501.80 544.86,498.17 C550.19,494.02 565.87,485.38 570.50,484.03 C572.70,483.39 575.40,482.48 576.50,482.02 C577.60,481.56 581.31,480.63 584.75,479.95 C588.60,479.20 591.00,478.22 591.00,477.42 C591.00,475.09 589.25,474.93 581.31,476.55 C572.56,478.33 557.07,485.43 546.74,492.38 C544.51,493.88 543.71,494.00 542.49,493.00 C540.26,491.14 540.68,488.26 543.56,485.76 C547.77,482.10 561.89,474.87 570.67,471.88 C579.68,468.82 595.24,465.77 597.48,466.63 C598.25,466.93 599.02,468.37 599.19,469.83 C599.47,472.27 599.93,472.53 604.39,472.81 C607.08,472.98 609.78,472.62 610.39,472.01 C611.14,471.26 611.52,463.17 611.55,447.20 L 611.60 423.50 L 614.74 423.19 C616.96,422.97 618.14,423.41 618.80,424.69 C619.34,425.74 619.68,443.68 619.62,467.14 C619.51,504.42 619.35,507.95 617.74,509.73 C616.06,511.59 616.07,511.75 617.99,513.49 C619.79,515.12 620.00,516.56 620.00,527.53 C620.00,537.69 619.72,539.99 618.34,541.13 C617.10,542.16 612.79,542.51 601.09,542.54 C591.03,542.57 581.81,543.20 575.09,544.34 C569.37,545.30 564.34,545.73 563.90,545.29 C560.89,542.24 563.06,534.00 566.87,534.00 C570.57,534.00 574.82,531.84 575.37,529.68 C576.22,526.33 579.75,524.76 588.50,523.82 C604.09,522.15 605.46,521.76 605.84,519.00 C606.03,517.62 606.90,515.70 607.77,514.73 C608.84,513.52 609.03,512.63 608.33,511.93 C607.15,510.75 605.57,512.36 603.12,517.26 C601.90,519.71 600.77,520.56 598.50,520.74 C596.85,520.87 590.86,521.50 585.19,522.14 L 574.88 523.31 L 572.92 527.15 C571.29,530.34 570.44,531.00 567.91,531.00 C563.22,531.00 561.00,532.63 561.00,536.10 C561.00,541.15 559.21,542.99 550.41,547.04 C540.58,551.56 534.45,555.59 527.50,562.08 ZM 524.79 562.25 C531.81,555.14 548.12,545.00 552.52,545.00 C555.37,545.00 559.00,540.35 559.00,536.70 C559.00,532.50 561.20,530.43 566.60,529.55 C569.95,529.00 570.95,528.30 572.10,525.69 C573.27,523.03 574.33,522.31 578.50,521.35 C581.25,520.71 586.42,520.10 590.00,520.00 C598.50,519.74 601.43,518.86 601.79,516.46 C602.44,512.19 605.48,509.76 610.84,509.24 C613.66,508.97 616.43,508.19 616.99,507.51 C617.67,506.69 617.93,492.50 617.76,465.88 L 617.50 425.50 L 613.00 424.86 L 612.84 442.18 C612.75,451.71 612.77,462.14 612.87,465.36 C613.13,472.99 612.18,474.00 604.83,474.00 C599.13,474.00 598.85,473.88 597.84,470.98 L 596.79 467.97 L 590.15 468.63 C578.50,469.79 556.45,478.15 547.25,484.90 C540.14,490.11 542.35,493.41 549.64,488.47 C555.77,484.31 571.08,477.42 577.40,475.96 C580.65,475.22 585.38,474.58 587.90,474.55 C592.14,474.50 592.50,474.69 592.50,476.98 L 592.50 477.07 C592.50,477.70 592.50,478.17 592.33,478.57 C591.78,479.83 589.51,480.34 580.09,482.53 C568.34,485.25 552.95,493.12 542.64,501.68 C538.99,504.71 537.00,503.36 537.00,497.85 C537.00,493.69 534.58,491.47 532.91,494.10 C532.43,494.87 532.02,507.36 532.02,521.87 L 532.00 548.23 L 525.00 554.93 C518.51,561.15 516.98,563.65 518.67,565.33 C519.92,566.59 521.08,566.00 524.79,562.25 ZM 412.04 537.46 C410.27,539.58 405.39,539.45 404.55,537.26 C403.39,534.25 403.93,425.79 405.11,424.37 C408.09,420.78 428.61,422.18 446.50,427.18 C452.55,428.88 457.95,430.59 458.50,430.98 C459.05,431.38 461.98,432.54 465.00,433.56 C468.02,434.58 471.17,435.90 472.00,436.50 C472.83,437.10 474.62,438.15 476.00,438.85 C477.38,439.54 482.10,443.15 486.50,446.87 C494.47,453.61 494.50,453.65 494.56,458.57 C494.59,461.28 494.96,465.23 495.37,467.35 C495.95,470.30 495.74,471.63 494.48,473.02 C493.21,474.43 493.08,475.28 493.92,476.85 C495.47,479.74 495.25,483.55 493.46,485.03 C492.18,486.10 491.24,485.78 487.71,483.11 C477.29,475.22 459.57,465.00 456.31,465.00 C455.74,465.00 454.08,464.07 452.63,462.93 C449.42,460.39 449.22,456.76 452.20,454.78 L 454.40 453.32 L 452.20 450.53 C449.61,447.23 449.44,445.24 451.52,442.27 C452.92,440.28 452.88,440.01 451.08,439.04 C450.00,438.46 443.80,436.83 437.31,435.41 C424.23,432.56 416.51,432.58 414.41,435.46 C413.43,436.79 413.17,448.34 413.23,486.55 C413.30,525.33 413.04,536.24 412.04,537.46 ZM 537.22 485.20 C535.41,486.74 533.78,488.00 533.59,488.00 C531.94,488.00 530.82,483.94 530.79,477.85 C530.75,470.80 530.84,470.54 534.28,467.56 C544.05,459.09 558.44,451.22 570.00,448.02 C581.82,444.75 591.91,442.75 593.52,443.37 C594.66,443.81 595.00,445.84 595.00,452.27 C595.00,461.69 594.28,462.99 589.05,463.01 C576.77,463.07 549.43,474.76 537.22,485.20 ZM 540.77 480.86 C559.87,469.10 567.83,465.62 578.23,464.49 C581.39,464.14 584.20,463.49 584.47,463.04 C584.75,462.59 586.55,461.93 588.48,461.57 C592.96,460.73 594.17,458.37 593.80,451.22 C593.51,445.76 593.37,445.49 590.65,445.17 C587.88,444.86 575.18,447.69 566.00,450.68 C553.31,454.80 533.83,467.57 532.57,472.58 C531.97,474.97 532.84,485.00 533.65,485.00 C533.86,485.00 537.07,483.14 540.77,480.86 ZM 540.20 457.61 C532.01,463.32 530.00,463.38 530.00,457.90 C530.00,455.75 531.44,453.86 536.44,449.44 C543.29,443.39 545.96,441.57 555.55,436.45 C565.57,431.11 584.74,425.66 593.90,425.55 L 598.50 425.50 L 598.80 430.63 C599.18,437.22 597.56,439.00 591.18,439.00 C585.64,439.00 570.76,442.31 563.00,445.27 C555.60,448.09 547.80,452.31 540.20,457.61 ZM 573.70 409.97 C570.49,410.80 568.15,411.58 567.55,412.13 C567.03,412.61 565.67,413.00 564.54,413.00 C562.39,413.00 555.86,415.27 547.77,418.83 C540.11,422.20 528.06,430.80 519.82,438.77 C514.69,443.74 511.72,445.94 510.86,445.41 C510.15,444.98 507.00,441.87 503.86,438.51 C498.52,432.80 487.42,424.55 478.61,419.64 C481.54,421.13 484.38,422.38 485.21,422.54 C488.92,423.26 495.97,428.31 503.25,435.48 C507.46,439.62 511.14,443.00 511.45,443.00 C511.75,443.00 512.00,441.94 512.00,440.63 C512.00,439.33 512.90,437.13 514.00,435.73 C516.57,432.46 516.52,432.18 513.49,432.76 C511.59,433.12 509.96,432.30 506.74,429.35 C500.49,423.62 486.91,414.31 480.55,411.40 C474.56,408.65 473.18,406.00 477.75,406.00 C481.27,406.01 496.34,414.44 503.21,420.25 L 503.50 420.50 C508.15,424.43 510.31,426.26 512.44,426.22 C514.34,426.18 516.22,424.63 519.81,421.72 C531.02,412.66 547.45,403.92 550.14,405.59 C552.33,406.94 550.48,409.09 544.67,411.92 C541.19,413.61 537.86,415.00 537.28,415.00 C535.41,415.00 524.37,423.67 522.00,427.01 C519.78,430.12 519.77,430.19 521.79,429.11 C522.95,428.49 524.18,427.52 524.54,426.94 C524.91,426.34 526.43,426.15 528.02,426.50 C531.25,427.21 535.19,424.43 537.66,419.68 C538.87,417.35 539.58,416.97 541.81,417.45 C543.58,417.83 545.87,417.29 548.50,415.87 C553.54,413.14 561.31,411.03 566.50,410.99 C567.98,410.98 570.78,410.56 573.70,409.97 ZM 541.09 455.13 C546.60,451.19 558.67,445.13 565.00,443.12 C566.92,442.51 570.60,441.35 573.17,440.55 C575.75,439.74 581.82,438.58 586.67,437.98 C591.53,437.38 595.87,436.52 596.31,436.08 C596.76,435.64 596.99,433.30 596.81,430.89 L 596.50 426.50 L 592.63 426.73 C588.01,427.01 578.16,429.35 568.50,432.46 C552.35,437.66 529.82,453.66 532.51,458.02 C533.58,459.75 535.55,459.09 541.09,455.13 ZM 630.33 567.93 C614.83,566.56 595.26,565.98 580.74,566.28 L 580.74 566.28 C574.07,566.32 568.85,566.50 566.76,566.85 C563.32,567.43 558.98,567.59 557.13,567.19 L 553.75 566.47 L 558.63 564.33 C562.02,562.85 565.38,561.66 568.97,560.74 C579.17,558.43 589.87,557.79 606.00,558.39 C615.62,558.74 625.08,559.29 627.01,559.60 C629.68,560.03 631.18,559.65 633.26,558.01 L 636.00 555.85 L 636.00 496.49 C636.00,463.04 636.39,436.88 636.89,436.57 C637.37,436.27 638.33,436.69 639.01,437.51 C639.69,438.33 641.02,439.00 641.97,439.00 C642.91,439.00 644.43,439.82 645.35,440.83 C644.43,439.82 642.42,439.00 640.87,439.00 L 638.05 439.00 L 637.77 498.06 L 637.50 557.11 L 635.10 558.93 C632.88,560.60 630.64,560.70 606.10,560.28 C581.50,559.85 579.05,559.97 573.50,561.81 L 567.50 563.80 L 590.43 563.90 C612.13,563.99 630.90,565.41 632.00,567.03 C632.26,567.42 633.32,567.96 634.38,568.26 C633.08,568.16 631.72,568.05 630.33,567.93 ZM 425.18 566.31 C416.69,566.35 409.45,566.53 406.56,566.86 C405.81,566.95 405.07,567.04 404.32,567.12 C400.42,567.35 396.67,567.63 393.20,567.95 C391.29,568.13 389.42,568.28 387.69,568.40 C390.38,568.07 392.63,567.60 392.92,567.13 C393.98,565.42 412.38,564.00 433.46,564.00 C446.49,564.00 454.00,563.63 454.00,563.00 C454.00,562.45 453.07,562.00 451.93,562.00 C450.80,562.00 449.04,561.55 448.02,561.01 C446.94,560.43 434.87,559.99 419.02,559.95 C409.03,559.92 402.69,559.89 398.55,559.74 C398.97,559.70 399.40,559.66 399.85,559.63 C411.86,558.72 422.71,558.24 431.19,558.23 C437.17,558.26 442.25,558.56 446.77,559.14 C450.60,559.78 454.24,560.51 457.55,561.29 C466.09,563.70 470.26,567.85 463.50,567.22 C461.63,567.04 458.94,566.89 455.74,566.77 L 455.74 566.77 C448.01,566.23 436.84,566.08 425.18,566.31 ZM 605.67 501.33 C604.29,499.95 605.07,496.03 606.93,495.04 C610.52,493.12 613.25,495.81 612.19,500.25 C611.77,501.99 607.10,502.77 605.67,501.33 ZM 547.67 538.33 C546.29,536.96 547.08,534.03 549.12,532.94 C551.90,531.45 554.52,533.79 553.54,536.89 C552.89,538.93 549.18,539.85 547.67,538.33 ZM 518.44 598.00 C517.05,598.84 515.83,599.22 514.39,599.39 C509.33,599.99 507.06,599.49 502.64,595.30 C505.46,597.46 508.11,597.99 512.84,597.99 ZM 607.00 497.93 C607.00,499.36 607.64,500.00 609.07,500.00 C611.64,500.00 611.35,496.69 608.74,496.19 C607.54,495.96 607.00,496.50 607.00,497.93 ZM 549.67 537.33 C550.93,538.60 552.00,537.99 552.00,536.00 C552.00,534.89 551.33,534.00 550.50,534.00 C548.98,534.00 548.45,536.12 549.67,537.33 ZM 388.15 543.21 C388.38,551.56 388.92,555.91 390.11,558.10 C390.05,558.05 389.99,557.99 389.94,557.94 C388.82,556.82 388.35,555.66 388.15,543.21 ZM 485.33 582.51 C482.25,581.35 478.57,580.27 474.00,579.12 C469.11,577.89 463.72,576.94 457.90,576.26 C468.77,577.48 478.11,579.59 485.33,582.51 ZM 634.45 407.14 C632.53,405.01 628.21,405.01 618.53,405.03 C614.12,405.03 608.51,405.21 603.58,405.46 C608.53,405.16 613.74,405.00 619.03,405.00 C628.36,405.00 632.56,405.03 634.45,407.14 ZM 589.30 406.82 C585.69,407.38 581.87,408.09 578.45,408.84 C581.50,408.06 585.17,407.38 589.30,406.82 ZM 548.54 579.63 C542.17,581.40 536.24,583.50 533.76,585.00 C533.85,584.94 533.93,584.89 534.00,584.84 C536.25,583.46 542.18,581.39 548.54,579.63 ZM 463.60 413.55 C457.75,411.63 451.16,409.74 445.67,408.48 C451.45,409.80 457.85,411.63 463.60,413.55 Z" fill="rgb(212,190,178)"/>
<path d="M 0.00 512.00 L 0.00 0.00 L 512.00 0.00 L 1024.00 0.00 L 1024.00 512.00 L 1024.00 1024.00 L 512.00 1024.00 L 0.00 1024.00 L 0.00 512.00 ZM 524.60 592.83 C528.07,589.47 532.19,585.95 533.75,585.01 C537.79,582.55 551.16,578.49 560.50,576.88 C570.58,575.14 609.73,575.04 623.00,576.72 C628.22,577.38 636.50,578.43 641.40,579.05 C651.49,580.34 654.44,579.61 656.02,575.45 C657.39,571.84 657.35,438.51 655.97,435.94 C654.35,432.92 649.52,430.97 643.05,430.72 C635.97,430.46 636.03,430.57 636.01,417.31 C636.00,405.10 635.86,405.00 619.03,405.00 C602.78,405.00 587.21,406.51 577.91,408.98 C573.84,410.07 568.70,410.97 566.50,410.99 C561.31,411.03 553.54,413.14 548.50,415.87 C545.87,417.29 543.58,417.83 541.81,417.45 C539.58,416.97 538.87,417.35 537.66,419.68 C535.19,424.43 531.25,427.21 528.02,426.50 C526.43,426.15 524.91,426.34 524.54,426.94 C524.18,427.52 522.95,428.49 521.79,429.11 C519.77,430.19 519.78,430.12 522.00,427.01 C524.37,423.67 535.41,415.00 537.28,415.00 C537.86,415.00 541.19,413.61 544.67,411.92 C550.48,409.09 552.33,406.94 550.14,405.59 C547.45,403.92 531.02,412.66 519.81,421.72 C512.12,427.93 512.31,427.95 503.21,420.25 C496.34,414.44 481.27,406.01 477.75,406.00 C473.18,406.00 474.56,408.65 480.55,411.40 C486.91,414.31 500.49,423.62 506.74,429.35 C509.96,432.30 511.59,433.12 513.49,432.76 C516.52,432.18 516.57,432.46 514.00,435.73 C512.90,437.13 512.00,439.33 512.00,440.63 C512.00,441.94 511.75,443.00 511.45,443.00 C511.14,443.00 507.46,439.62 503.25,435.48 C495.97,428.31 488.92,423.26 485.21,422.54 C484.27,422.35 480.80,420.79 477.50,419.07 C471.20,415.78 457.20,411.12 445.67,408.48 C435.88,406.24 422.49,404.79 407.23,404.31 L 393.95 403.89 L 390.98 406.87 C388.12,409.73 388.00,410.20 388.00,418.84 C388.00,430.76 387.88,431.00 381.79,431.00 C379.05,431.00 375.22,431.75 373.28,432.67 C366.71,435.79 366.88,433.72 367.21,507.99 L 367.50 574.84 L 370.00 577.52 C372.84,580.55 370.17,580.59 400.00,577.09 C429.00,573.70 455.23,574.41 474.00,579.12 C487.36,582.47 493.08,585.27 498.57,591.14 C506.06,599.14 507.99,600.15 514.39,599.39 C517.49,599.03 519.57,597.69 524.60,592.83 ZM 459.81 393.31 C460.20,390.58 456.34,387.86 451.77,387.65 C448.91,387.52 448.50,387.81 448.50,390.00 C448.50,391.85 449.40,392.96 452.00,394.27 C456.45,396.52 459.41,396.16 459.81,393.31 ZM 572.75 394.03 C575.77,392.66 577.00,391.50 577.00,390.02 C577.00,385.96 571.25,386.16 566.33,390.39 C563.95,392.44 563.75,392.99 564.90,394.39 C566.61,396.44 567.54,396.39 572.75,394.03 ZM 501.06 389.89 C502.00,388.13 501.50,386.44 497.95,379.40 C493.09,369.78 491.61,368.13 489.17,369.66 C486.22,371.50 486.67,375.57 490.60,382.72 C492.65,386.45 494.76,390.06 495.29,390.75 C496.77,392.68 499.81,392.23 501.06,389.89 ZM 529.82 389.25 C533.22,384.48 538.15,374.04 537.82,372.34 C537.64,371.45 536.72,370.22 535.76,369.62 C533.42,368.14 531.14,370.56 526.57,379.39 C522.75,386.77 522.31,388.91 524.20,390.80 C526.08,392.68 527.70,392.23 529.82,389.25 ZM 451.80 369.80 C452.46,369.14 453.00,367.27 453.00,365.65 C453.00,362.46 451.17,360.59 439.00,351.35 C435.42,348.63 430.33,344.75 427.67,342.71 C422.03,338.37 418.71,337.99 416.46,341.42 C415.01,343.63 415.01,344.12 416.45,346.90 C417.32,348.58 420.39,351.49 423.26,353.37 C426.14,355.25 432.33,359.97 437.00,363.86 C445.52,370.95 449.18,372.42 451.80,369.80 ZM 582.13 368.21 C584.12,366.72 589.36,362.58 593.77,359.00 C598.18,355.42 603.35,351.29 605.26,349.81 C609.36,346.64 610.32,343.91 608.33,341.06 C605.58,337.13 602.22,338.30 591.50,346.97 C587.65,350.08 583.48,353.32 582.23,354.17 C576.37,358.16 572.00,363.15 572.00,365.84 C572.00,371.52 576.34,372.54 582.13,368.21 ZM 482.86 351.95 C484.22,349.52 483.88,348.63 475.94,333.95 C471.35,325.45 467.12,318.17 466.55,317.77 C462.91,315.21 457.46,318.63 458.35,322.91 C459.04,326.25 470.95,347.50 474.53,351.80 C477.77,355.68 480.74,355.73 482.86,351.95 ZM 549.16 353.25 C551.37,350.62 565.83,324.72 566.05,323.00 C566.47,319.64 565.89,318.01 563.87,316.93 C560.01,314.87 557.53,317.20 551.41,328.69 C548.24,334.63 544.60,341.07 543.32,342.98 C540.53,347.16 540.26,352.47 542.75,353.92 C545.35,355.44 547.51,355.21 549.16,353.25 ZM 516.00 333.00 C517.85,331.15 518.00,329.67 518.00,312.93 C518.00,302.39 517.57,294.06 516.96,292.93 C516.25,291.60 514.87,291.00 512.50,291.00 C510.13,291.00 508.75,291.60 508.04,292.93 C507.43,294.06 507.00,302.39 507.00,312.93 C507.00,329.67 507.15,331.15 509.00,333.00 C510.10,334.10 511.67,335.00 512.50,335.00 C513.33,335.00 514.90,334.10 516.00,333.00 ZM 508.37 586.75 C507.29,585.51 504.53,582.03 502.26,579.00 C491.73,565.01 478.98,556.81 459.37,551.41 C451.38,549.21 430.35,548.13 414.14,549.09 C406.12,549.56 399.20,549.60 398.77,549.17 C398.34,548.74 398.10,518.26 398.24,481.44 L 398.50 414.50 L 413.50 414.81 C430.66,415.17 442.13,417.12 458.24,422.42 C481.06,429.93 497.09,441.31 503.92,454.85 L 507.00 460.94 L 507.00 487.36 C507.00,511.48 507.16,513.98 508.83,516.04 C510.20,517.73 511.29,518.14 513.16,517.67 C517.59,516.56 518.00,513.82 518.01,485.20 L 518.02 458.50 L 520.94 453.50 C524.07,448.16 528.93,442.72 533.39,439.56 C534.89,438.50 537.11,436.76 538.31,435.71 C545.56,429.37 571.90,419.43 589.00,416.58 C600.02,414.74 624.60,413.54 625.38,414.80 C626.43,416.50 626.31,547.09 625.26,548.14 C624.68,548.72 612.89,549.23 596.39,549.38 L 568.50 549.64 L 559.70 552.75 C542.36,558.89 528.97,568.72 519.82,582.00 C514.58,589.61 511.87,590.74 508.37,586.75 ZM 527.50 562.08 C534.45,555.59 540.58,551.56 550.41,547.04 C559.21,542.99 561.00,541.15 561.00,536.10 C561.00,532.63 563.22,531.00 567.91,531.00 C570.44,531.00 571.29,530.34 572.92,527.15 L 574.88 523.31 L 585.19 522.14 C590.86,521.50 596.85,520.87 598.50,520.74 C600.77,520.56 601.90,519.71 603.12,517.26 C605.57,512.36 607.15,510.75 608.33,511.93 C609.03,512.63 608.84,513.52 607.77,514.73 C606.90,515.70 606.03,517.62 605.84,519.00 C605.46,521.76 604.09,522.15 588.50,523.82 C579.75,524.76 576.22,526.33 575.37,529.68 C574.82,531.84 570.57,534.00 566.87,534.00 C563.06,534.00 560.89,542.24 563.90,545.29 C564.34,545.73 569.37,545.30 575.09,544.34 C581.81,543.20 591.03,542.57 601.09,542.54 C612.79,542.51 617.10,542.16 618.34,541.13 C619.72,539.99 620.00,537.69 620.00,527.53 C620.00,516.56 619.79,515.12 617.99,513.49 C616.07,511.75 616.06,511.59 617.74,509.73 C619.35,507.95 619.51,504.42 619.62,467.14 C619.68,443.68 619.34,425.74 618.80,424.69 C618.14,423.41 616.96,422.97 614.74,423.19 L 611.60 423.50 L 611.55 447.20 C611.52,463.17 611.14,471.26 610.39,472.01 C609.78,472.62 607.08,472.98 604.39,472.81 C599.93,472.53 599.47,472.27 599.19,469.83 C599.02,468.37 598.25,466.93 597.48,466.63 C595.24,465.77 579.68,468.82 570.67,471.88 C561.89,474.87 547.77,482.10 543.56,485.76 C540.68,488.26 540.26,491.14 542.49,493.00 C543.71,494.00 544.51,493.88 546.74,492.38 C557.07,485.43 572.56,478.33 581.31,476.55 C589.25,474.93 591.00,475.09 591.00,477.42 C591.00,478.22 588.60,479.20 584.75,479.95 C581.31,480.63 577.60,481.56 576.50,482.02 C575.40,482.48 572.70,483.39 570.50,484.03 C565.87,485.38 550.19,494.02 544.86,498.17 C540.18,501.80 539.00,501.74 539.00,497.83 C539.00,491.74 532.90,488.50 530.98,493.57 C530.43,494.99 530.00,507.59 530.00,521.93 C530.00,546.52 529.90,547.85 527.93,550.37 C526.79,551.81 525.25,553.00 524.50,553.00 C522.72,553.00 517.32,559.60 516.53,562.73 C515.73,565.93 517.64,568.24 520.39,567.40 C521.55,567.04 524.75,564.65 527.50,562.08 ZM 505.79 563.81 C508.16,561.44 496.17,543.84 485.87,534.57 C471.38,521.55 454.39,513.82 433.85,510.93 C423.29,509.44 421.76,509.87 422.19,514.24 C422.49,517.35 422.73,517.53 427.50,518.11 C457.37,521.76 477.80,533.32 494.46,556.02 C500.95,564.87 503.19,566.41 505.79,563.81 ZM 412.04 537.46 C413.04,536.24 413.30,525.33 413.23,486.55 C413.17,448.34 413.43,436.79 414.41,435.46 C416.51,432.58 424.23,432.56 437.31,435.41 C443.80,436.83 450.00,438.46 451.08,439.04 C452.88,440.01 452.92,440.28 451.52,442.27 C449.44,445.24 449.61,447.23 452.20,450.53 L 454.40 453.32 L 452.20 454.78 C449.22,456.76 449.42,460.39 452.63,462.93 C454.08,464.07 455.74,465.00 456.31,465.00 C459.57,465.00 477.29,475.22 487.71,483.11 C491.24,485.78 492.18,486.10 493.46,485.03 C495.25,483.55 495.47,479.74 493.92,476.85 C493.08,475.28 493.21,474.43 494.48,473.02 C495.74,471.63 495.95,470.30 495.37,467.35 C494.96,465.23 494.59,461.28 494.56,458.57 C494.50,453.65 494.47,453.61 486.50,446.87 C482.10,443.15 477.38,439.54 476.00,438.85 C474.62,438.15 472.83,437.10 472.00,436.50 C471.17,435.90 468.02,434.58 465.00,433.56 C461.98,432.54 459.05,431.38 458.50,430.98 C457.95,430.59 452.55,428.88 446.50,427.18 C428.61,422.18 408.09,420.78 405.11,424.37 C403.93,425.79 403.39,534.25 404.55,537.26 C405.39,539.45 410.27,539.58 412.04,537.46 ZM 537.22 485.20 C549.43,474.76 576.77,463.07 589.05,463.01 C594.28,462.99 595.00,461.69 595.00,452.27 C595.00,445.84 594.66,443.81 593.52,443.37 C591.91,442.75 581.82,444.75 570.00,448.02 C558.44,451.22 544.05,459.09 534.28,467.56 C530.84,470.54 530.75,470.80 530.79,477.85 C530.82,483.94 531.94,488.00 533.59,488.00 C533.78,488.00 535.41,486.74 537.22,485.20 ZM 540.20 457.61 C547.80,452.31 555.60,448.09 563.00,445.27 C570.76,442.31 585.64,439.00 591.18,439.00 C597.56,439.00 599.18,437.22 598.80,430.63 L 598.50 425.50 L 593.90 425.55 C584.74,425.66 565.57,431.11 555.55,436.45 C545.96,441.57 543.29,443.39 536.44,449.44 C531.44,453.86 530.00,455.75 530.00,457.90 C530.00,463.38 532.01,463.32 540.20,457.61 ZM 377.75 568.44 C377.34,568.02 377.00,539.46 377.00,504.99 C377.00,446.54 377.12,442.21 378.75,440.79 C381.44,438.46 386.69,437.75 387.41,439.62 C387.73,440.47 388.00,467.00 388.00,498.58 C388.00,554.06 388.07,556.07 389.94,557.94 C391.76,559.76 393.55,559.88 419.02,559.95 C434.87,559.99 446.94,560.43 448.02,561.01 C449.04,561.55 450.80,562.00 451.93,562.00 C453.07,562.00 454.00,562.45 454.00,563.00 C454.00,563.63 446.49,564.00 433.46,564.00 C412.38,564.00 393.98,565.42 392.92,567.13 C392.18,568.33 378.77,569.50 377.75,568.44 ZM 634.50 568.29 C633.40,568.00 632.28,567.44 632.00,567.03 C630.90,565.41 612.13,563.99 590.43,563.90 L 567.50 563.80 L 573.50 561.81 C579.05,559.97 581.50,559.85 606.10,560.28 C630.64,560.70 632.88,560.60 635.10,558.93 L 637.50 557.11 L 637.77 498.06 L 638.05 439.00 L 640.87 439.00 C642.42,439.00 644.44,439.83 645.35,440.84 C646.87,442.52 646.99,448.11 646.76,505.59 L 646.50 568.50 L 641.50 568.66 C638.75,568.74 635.60,568.58 634.50,568.29 ZM 549.67 537.33 C548.45,536.12 548.98,534.00 550.50,534.00 C551.33,534.00 552.00,534.89 552.00,536.00 C552.00,537.99 550.93,538.60 549.67,537.33 ZM 607.00 497.93 C607.00,496.50 607.54,495.96 608.74,496.19 C611.35,496.69 611.64,500.00 609.07,500.00 C607.64,500.00 607.00,499.36 607.00,497.93 Z" fill="rgb(254,254,254)"/>
</g>
</svg>